<svg width="36" height="36" viewBox="0 0 36 36" fill="none" xmlns="http://www.w3.org/2000/svg">
<g id="Group 12582">
<path id="Union 9" opacity="0.1" d="M3.4085e-05 27.255C-0.00362338 25.9467 0.287109 24.6544 0.850696 23.4737C1.41428 22.2931 2.23628 21.2543 3.2558 20.4345C4.27532 19.6146 5.46623 19.0346 6.74032 18.7375C8.0144 18.4404 9.33902 18.4337 10.616 18.718C9.36369 15.8845 9.14398 12.7018 9.99512 9.72315C10.8463 6.7445 12.7144 4.15835 15.2747 2.41436C17.835 0.67037 20.9256 -0.121155 24.009 0.177412C27.0925 0.47598 29.9738 1.84576 32.1519 4.04857C34.3301 6.25139 35.6674 9.14791 35.9312 12.2345C36.195 15.3211 35.3688 18.4026 33.5961 20.9431C31.8234 23.4837 29.2163 25.3226 26.2283 26.1401C23.2403 26.9577 20.0602 26.7021 17.241 25.418C17.5125 26.691 17.4967 28.0085 17.1949 29.2746C16.893 30.5407 16.3127 31.7236 15.4961 32.7372C14.6796 33.7508 13.6473 34.5696 12.4744 35.134C11.3016 35.6984 10.0176 35.9943 8.71603 36C6.4006 35.996 4.18157 35.0725 2.54703 33.4325C0.912489 31.7925 -0.00368209 29.5704 3.4085e-05 27.255Z" fill="#EE2C65"/>
<g id="rocket">
<g id="Group 12522">
<path id="Ellipse 424" d="M19.918 17.366C21.1838 17.366 22.21 16.3398 22.21 15.074C22.21 13.8081 21.1838 12.782 19.918 12.782C18.6521 12.782 17.626 13.8081 17.626 15.074C17.626 16.3398 18.6521 17.366 19.918 17.366Z" fill="#EE2C65"/>
<path id="Path 17079" d="M18.085 29.746L17.168 32.038H22.668L21.753 29.746H18.085Z" fill="#EE2C65"/>
<path id="Path 17080" d="M9.37265 32.038L14.6997 28.614L13.6997 22.168C9.32065 23.958 8.02465 27.323 9.37265 32.038Z" fill="#EE2C65"/>
<path id="Path 17081" d="M26.1199 22.184L25.0869 28.614L30.4139 32.039C31.7579 27.334 30.4729 23.977 26.1199 22.184Z" fill="#EE2C65"/>
<path id="Path 17082" d="M19.001 28.37H20.835L20.376 23.327H19.459L19.001 28.37Z" fill="#EE2C65"/>
</g>
<g id="Group 12523">
<path id="Path 17083" d="M19.917 10.948C19.101 10.948 18.3032 11.19 17.6247 11.6434C16.9462 12.0967 16.4174 12.7411 16.1051 13.495C15.7928 14.249 15.7111 15.0786 15.8703 15.8789C16.0295 16.6793 16.4225 17.4145 16.9995 17.9915C17.5765 18.5685 18.3117 18.9615 19.1121 19.1207C19.9124 19.2799 20.742 19.1982 21.496 18.8859C22.2499 18.5736 22.8943 18.0448 23.3477 17.3663C23.801 16.6878 24.043 15.8901 24.043 15.074C24.043 13.9797 23.6083 12.9303 22.8345 12.1565C22.0608 11.3827 21.0113 10.948 19.917 10.948ZM19.917 18.284C19.2823 18.284 18.6619 18.0958 18.1342 17.7432C17.6065 17.3906 17.1952 16.8894 16.9523 16.303C16.7094 15.7167 16.6458 15.0714 16.7697 14.449C16.8935 13.8265 17.1991 13.2547 17.6479 12.8059C18.0967 12.3571 18.6685 12.0515 19.291 11.9277C19.9135 11.8038 20.5587 11.8674 21.145 12.1103C21.7314 12.3532 22.2326 12.7645 22.5852 13.2922C22.9378 13.8199 23.126 14.4403 23.126 15.075C23.126 15.9261 22.7879 16.7423 22.1861 17.3441C21.5843 17.9459 20.7681 18.284 19.917 18.284Z" fill="#EE2C65"/>
<path id="Path 17084" d="M19.917 12.324C19.3729 12.324 18.841 12.4853 18.3886 12.7876C17.9362 13.0899 17.5836 13.5195 17.3754 14.0222C17.1672 14.5249 17.1127 15.078 17.2189 15.6117C17.325 16.1453 17.587 16.6355 17.9718 17.0202C18.3565 17.405 18.8467 17.667 19.3803 17.7731C19.914 17.8793 20.4671 17.8248 20.9698 17.6166C21.4725 17.4083 21.9021 17.0557 22.2044 16.6033C22.5067 16.1509 22.668 15.6191 22.668 15.075C22.668 14.3454 22.3782 13.6456 21.8623 13.1297C21.3463 12.6138 20.6466 12.324 19.917 12.324ZM19.917 16.909C19.5543 16.909 19.1997 16.8014 18.8981 16.5999C18.5965 16.3984 18.3614 16.1119 18.2226 15.7768C18.0838 15.4417 18.0475 15.0729 18.1183 14.7172C18.189 14.3614 18.3637 14.0346 18.6202 13.7781C18.8767 13.5216 19.2035 13.347 19.5592 13.2762C19.915 13.2054 20.2837 13.2418 20.6189 13.3806C20.954 13.5194 21.2404 13.7545 21.4419 14.0561C21.6434 14.3577 21.751 14.7123 21.751 15.075C21.751 15.5614 21.5578 16.0279 21.2139 16.3718C20.8699 16.7158 20.4034 16.909 19.917 16.909Z" fill="#EE2C65"/>
<path id="Path 17085" d="M26.6284 21.904L26.8284 20.644C26.8289 20.6336 26.8289 20.6233 26.8284 20.613C27.1235 17.6803 26.7223 14.7193 25.6574 11.971C24.5363 9.23831 22.8638 6.76617 20.7444 4.70896L20.2444 4.20896C20.1583 4.12292 20.0416 4.07458 19.9199 4.07458C19.7982 4.07458 19.6814 4.12292 19.5954 4.20896L19.0954 4.70896C16.9743 6.76582 15.3001 9.23796 14.1774 11.971C13.1099 14.7191 12.7063 17.6804 12.9994 20.614C12.9988 20.6233 12.9988 20.6326 12.9994 20.642L13.1914 21.887C8.94836 23.761 7.51336 27.217 8.92736 32.165C8.94688 32.2339 8.98228 32.2972 9.03073 32.35C9.07918 32.4027 9.13932 32.4434 9.20632 32.4686C9.27332 32.4939 9.34532 32.5031 9.41653 32.4956C9.48775 32.488 9.55619 32.4638 9.61636 32.425L14.3494 29.382L14.4164 29.816C14.4331 29.9242 14.4879 30.0229 14.571 30.0942C14.654 30.1655 14.7599 30.2048 14.8694 30.205H17.4014L16.7404 31.871C16.7123 31.9406 16.7019 32.016 16.7098 32.0906C16.7178 32.1652 16.744 32.2367 16.786 32.2988C16.8281 32.3609 16.8848 32.4117 16.9511 32.4468C17.0174 32.4819 17.0913 32.5001 17.1664 32.5H22.6664C22.7415 32.5003 22.8155 32.4822 22.882 32.4472C22.9484 32.4122 23.0052 32.3613 23.0474 32.2992C23.0896 32.2371 23.1159 32.1655 23.1239 32.0908C23.1319 32.0161 23.1214 31.9406 23.0934 31.871L22.4284 30.207H24.9034C25.0124 30.2069 25.1179 30.1681 25.2009 30.0973C25.2839 30.0266 25.339 29.9286 25.3564 29.821L25.4264 29.38L30.1644 32.426C30.2245 32.4648 30.293 32.489 30.3642 32.4966C30.4354 32.5041 30.5074 32.4949 30.5744 32.4696C30.6414 32.4444 30.7015 32.4037 30.75 32.351C30.7984 32.2982 30.8338 32.2349 30.8534 32.166C32.2634 27.233 30.8414 23.783 26.6284 21.906V21.904ZM9.65436 31.312C8.66536 27.234 9.87536 24.45 13.3414 22.827L14.2014 28.39L9.65436 31.312ZM17.8444 31.58L18.3944 30.205H21.4414L21.9914 31.58H17.8444ZM24.5134 29.288H15.2674L15.1514 28.541C15.1514 28.541 15.1514 28.541 15.1514 28.535L13.9124 20.517C13.6352 17.7307 14.0186 14.9184 15.0314 12.308C16.107 9.69213 17.7099 7.32594 19.7404 5.35696L19.9184 5.17796L20.0964 5.35696C22.1268 7.32594 23.7298 9.69213 24.8054 12.308C25.8178 14.9181 26.2012 17.73 25.9244 20.516L25.6704 22.098L24.5134 29.288ZM30.1314 31.313L25.5864 28.391L26.4784 22.844C29.9174 24.471 31.1164 27.247 30.1304 31.312L30.1314 31.313Z" fill="#EE2C65"/>
<path id="Path 17086" d="M20.833 23.286C20.8227 23.172 20.7701 23.0659 20.6855 22.9887C20.6009 22.9115 20.4905 22.8688 20.376 22.869H19.459C19.3445 22.8688 19.234 22.9115 19.1494 22.9887C19.0648 23.0659 19.0122 23.172 19.002 23.286L18.542 28.329C18.5361 28.3925 18.5436 28.4565 18.5639 28.517C18.5842 28.5774 18.617 28.633 18.66 28.68C18.703 28.7271 18.7554 28.7647 18.8137 28.7903C18.8721 28.816 18.9352 28.8291 18.999 28.829H20.833C20.8967 28.8291 20.9598 28.816 21.0182 28.7903C21.0766 28.7647 21.1289 28.7271 21.172 28.68C21.215 28.633 21.2477 28.5774 21.268 28.517C21.2883 28.4565 21.2958 28.3925 21.29 28.329L20.833 23.286ZM19.503 27.912L19.878 23.786H19.958L20.333 27.912H19.503Z" fill="#EE2C65"/>
<path id="Path 17087" d="M20.376 21.9519V20.1179C20.376 19.9963 20.3277 19.8797 20.2417 19.7937C20.1557 19.7077 20.0391 19.6594 19.9175 19.6594C19.7959 19.6594 19.6793 19.7077 19.5933 19.7937C19.5073 19.8797 19.459 19.9963 19.459 20.1179V21.9519C19.459 22.0735 19.5073 22.1901 19.5933 22.2761C19.6793 22.3621 19.7959 22.4104 19.9175 22.4104C20.0391 22.4104 20.1557 22.3621 20.2417 22.2761C20.3277 22.1901 20.376 22.0735 20.376 21.9519Z" fill="#EE2C65"/>
<path id="Path 17088" d="M19.917 10.4899C20.0385 10.4899 20.155 10.4417 20.2409 10.3558C20.3268 10.2699 20.375 10.1534 20.375 10.0319V7.27991C20.375 7.15831 20.3267 7.04169 20.2407 6.9557C20.1547 6.86972 20.0381 6.82141 19.9165 6.82141C19.7949 6.82141 19.6783 6.86972 19.5923 6.9557C19.5063 7.04169 19.458 7.15831 19.458 7.27991V10.0309C19.4579 10.0912 19.4697 10.151 19.4927 10.2067C19.5157 10.2625 19.5495 10.3131 19.5922 10.3558C19.6348 10.3984 19.6855 10.4322 19.7412 10.4552C19.797 10.4783 19.8567 10.49 19.917 10.4899Z" fill="#EE2C65"/>
</g>
</g>
</g>
</svg>
