<svg width="36" height="36" viewBox="0 0 36 36" fill="none" xmlns="http://www.w3.org/2000/svg">
<g id="Group 12583">
<path id="Union 9" opacity="0.1" d="M3.4085e-05 27.255C-0.00362338 25.9467 0.287109 24.6544 0.850696 23.4737C1.41428 22.2931 2.23628 21.2543 3.2558 20.4345C4.27532 19.6146 5.46623 19.0346 6.74032 18.7375C8.0144 18.4404 9.33902 18.4337 10.616 18.718C9.36369 15.8845 9.14398 12.7018 9.99512 9.72315C10.8463 6.7445 12.7144 4.15835 15.2747 2.41436C17.835 0.67037 20.9256 -0.121155 24.009 0.177412C27.0925 0.47598 29.9738 1.84576 32.1519 4.04857C34.3301 6.25139 35.6674 9.14791 35.9312 12.2345C36.195 15.3211 35.3688 18.4026 33.5961 20.9431C31.8234 23.4837 29.2163 25.3226 26.2283 26.1401C23.2403 26.9577 20.0602 26.7021 17.241 25.418C17.5125 26.691 17.4967 28.0085 17.1949 29.2746C16.893 30.5407 16.3127 31.7236 15.4961 32.7372C14.6796 33.7508 13.6473 34.5696 12.4744 35.134C11.3016 35.6984 10.0176 35.9943 8.71603 36C6.4006 35.996 4.18157 35.0725 2.54703 33.4325C0.912489 31.7925 -0.00368209 29.5704 3.4085e-05 27.255Z" fill="#FEE9EF"/>
<g id="target">
<path id="Path 17089" d="M7.58887 19.243C7.80837 22.199 9.08203 24.9779 11.178 27.0738C13.274 29.1698 16.0529 30.4435 19.0089 30.663V29.323H20.8419V30.664C23.7979 30.4445 26.5768 29.1708 28.6727 27.0748C30.7687 24.9789 32.0424 22.2 32.2619 19.244H30.9209V17.411H32.2619C32.0424 14.455 30.7687 11.6761 28.6727 9.58009C26.5768 7.48413 23.7979 6.21047 20.8419 5.99097V7.33197H19.0089V5.99097C16.0529 6.21047 13.274 7.48413 11.178 9.58009C9.08203 11.6761 7.80837 14.455 7.58887 17.411H8.92987V19.244L7.58887 19.243ZM19.9249 9.16397C21.7371 9.16397 23.5087 9.70137 25.0156 10.7082C26.5224 11.7151 27.6969 13.1461 28.3904 14.8204C29.0839 16.4948 29.2654 18.3371 28.9118 20.1146C28.5582 21.892 27.6856 23.5247 26.4041 24.8062C25.1226 26.0877 23.4899 26.9603 21.7125 27.3139C19.935 27.6675 18.0927 27.486 16.4183 26.7925C14.744 26.099 13.313 24.9245 12.3061 23.4177C11.2993 21.9108 10.7619 20.1392 10.7619 18.327C10.7619 15.8968 11.7273 13.5661 13.4456 11.8477C15.164 10.1294 17.4947 9.16397 19.9249 9.16397Z" fill="#FF638F"/>
<path id="Ellipse 425" d="M19.9248 21.534C21.696 21.534 23.1318 20.0982 23.1318 18.327C23.1318 16.5558 21.696 15.12 19.9248 15.12C18.1536 15.12 16.7178 16.5558 16.7178 18.327C16.7178 20.0982 18.1536 21.534 19.9248 21.534Z" fill="#FF638F"/>
<path id="Path 17090" d="M33.7839 16.953H32.7939C32.4977 14.1984 31.3167 11.6139 29.4279 9.587L30.5369 8.477H32.1799C32.3014 8.477 32.4179 8.42875 32.5038 8.34286C32.5897 8.25697 32.6379 8.14047 32.6379 8.019C32.6379 7.89754 32.5897 7.78104 32.5038 7.69515C32.4179 7.60926 32.3014 7.561 32.1799 7.561H31.4529L32.1399 6.874H33.7829C33.9044 6.874 34.0209 6.82575 34.1068 6.73986C34.1927 6.65397 34.2409 6.53747 34.2409 6.416C34.2409 6.29454 34.1927 6.17804 34.1068 6.09215C34.0209 6.00626 33.9044 5.958 33.7829 5.958H33.0569L33.1919 5.824C33.2345 5.78146 33.2682 5.73094 33.2912 5.67535C33.3143 5.61976 33.3261 5.56018 33.3261 5.5C33.3261 5.43983 33.3143 5.38025 33.2912 5.32466C33.2682 5.26907 33.2345 5.21855 33.1919 5.176C33.1494 5.13346 33.0989 5.0997 33.0433 5.07668C32.9877 5.05365 32.9281 5.0418 32.8679 5.0418C32.8077 5.0418 32.7482 5.05365 32.6926 5.07668C32.637 5.0997 32.5865 5.13346 32.5439 5.176L32.4099 5.311V4.583C32.4099 4.46154 32.3617 4.34504 32.2758 4.25915C32.1899 4.17326 32.0734 4.125 31.9519 4.125C31.8304 4.125 31.714 4.17326 31.6281 4.25915C31.5422 4.34504 31.4939 4.46154 31.4939 4.583V6.225L30.8069 6.912V6.185C30.8069 6.06354 30.7587 5.94704 30.6728 5.86115C30.5869 5.77526 30.4704 5.727 30.3489 5.727C30.2274 5.727 30.111 5.77526 30.0251 5.86115C29.9392 5.94704 29.8909 6.06354 29.8909 6.185V7.825L28.7819 8.934C26.755 7.0452 24.1706 5.86419 21.4159 5.568V4.578C21.4146 4.45706 21.3655 4.34154 21.2793 4.25667C21.1931 4.1718 21.0769 4.12447 20.9559 4.125H19.1229C19.0014 4.125 18.885 4.17326 18.7991 4.25915C18.7132 4.34504 18.6649 4.46154 18.6649 4.583V5.573C15.7542 5.88661 13.0384 7.18636 10.9683 9.25642C8.89827 11.3265 7.59852 14.0423 7.28491 16.953H6.29491C6.17345 16.953 6.05695 17.0013 5.97106 17.0871C5.88517 17.173 5.83691 17.2895 5.83691 17.411V19.244C5.83691 19.3655 5.88517 19.482 5.97106 19.5679C6.05695 19.6538 6.17345 19.702 6.29491 19.702H7.28491C7.59852 22.6127 8.89827 25.3285 10.9683 27.3986C13.0384 29.4687 15.7542 30.7684 18.6649 31.082V32.072C18.6649 32.1935 18.7132 32.31 18.7991 32.3959C18.885 32.4818 19.0014 32.53 19.1229 32.53H20.9559C21.0774 32.53 21.1939 32.4818 21.2798 32.3959C21.3657 32.31 21.4139 32.1935 21.4139 32.072V31.082C24.3246 30.7684 27.0404 29.4687 29.1105 27.3986C31.1806 25.3285 32.4803 22.6127 32.7939 19.702H33.7839C33.9054 19.702 34.0219 19.6538 34.1078 19.5679C34.1937 19.482 34.2419 19.3655 34.2419 19.244V17.411C34.2419 17.2895 34.1937 17.173 34.1078 17.0871C34.0219 17.0013 33.9054 16.953 33.7839 16.953ZM19.5809 5.041H20.4969V6.874H19.5809V5.041ZM6.75291 18.786V17.87H8.58591V18.786H6.75291ZM20.4979 31.614H19.5819V29.781H20.4979V31.614ZM28.4629 26.751C26.5652 28.6503 24.081 29.8521 21.4139 30.161V29.325C21.4139 29.2035 21.3657 29.087 21.2798 29.0011C21.1939 28.9153 21.0774 28.867 20.9559 28.867H19.1229C19.0014 28.867 18.885 28.9153 18.7991 29.0011C18.7132 29.087 18.6649 29.2035 18.6649 29.325V30.162C15.9982 29.8518 13.5143 28.65 11.6161 26.7515C9.7179 24.8529 8.51658 22.3688 8.20691 19.702H9.04391C9.16538 19.702 9.28188 19.6538 9.36777 19.5679C9.45366 19.482 9.50191 19.3655 9.50191 19.244V17.411C9.50191 17.2895 9.45366 17.173 9.36777 17.0871C9.28188 17.0013 9.16538 16.953 9.04391 16.953H8.20691C8.51701 14.2865 9.71851 11.803 11.6167 9.90478C13.5149 8.0066 15.9985 6.8051 18.6649 6.495V7.332C18.6649 7.45347 18.7132 7.56997 18.7991 7.65586C18.885 7.74175 19.0014 7.79 19.1229 7.79H20.9559C21.0774 7.79 21.1939 7.74175 21.2798 7.65586C21.3657 7.56997 21.4139 7.45347 21.4139 7.332V6.495C23.9266 6.785 26.2815 7.86805 28.1369 9.587L26.5129 11.211C24.652 9.51933 22.2033 8.62254 19.6901 8.71228C17.1768 8.80202 14.7983 9.87117 13.0628 11.6913C11.3273 13.5114 10.3725 15.938 10.4025 18.4527C10.4324 20.9674 11.4446 23.3707 13.2229 25.149C15.0012 26.9273 17.4045 27.9395 19.9192 27.9695C22.4339 27.9994 24.8606 27.0446 26.6807 25.3091C28.5007 23.5736 29.5699 21.1951 29.6596 18.6819C29.7494 16.1686 28.8526 13.7199 27.1609 11.859L28.7849 10.235C30.5029 12.0891 31.5859 14.4421 31.8769 16.953H31.0369C30.9154 16.953 30.799 17.0013 30.7131 17.0871C30.6272 17.173 30.5789 17.2895 30.5789 17.411V19.244C30.5789 19.3655 30.6272 19.482 30.7131 19.5679C30.799 19.6538 30.9154 19.702 31.0369 19.702H31.8739C31.5642 22.369 30.3618 24.8529 28.4619 26.75L28.4629 26.751ZM19.1239 16.951C19.0024 16.951 18.886 16.9993 18.8001 17.0852C18.7142 17.171 18.6659 17.2875 18.6659 17.409V19.242C18.6659 19.3635 18.7142 19.48 18.8001 19.5659C18.886 19.6518 19.0024 19.7 19.1239 19.7H20.9569C21.0784 19.7 21.1949 19.6518 21.2808 19.5659C21.3667 19.48 21.4149 19.3635 21.4149 19.242C21.4149 19.1205 21.3667 19.004 21.2808 18.9181C21.1949 18.8323 21.0784 18.784 20.9569 18.784H20.2299L22.2799 16.734C22.68 17.2966 22.8541 17.989 22.7678 18.6739C22.6814 19.3588 22.3409 19.9863 21.8137 20.4319C21.2865 20.8776 20.6111 21.109 19.9213 21.0801C19.2316 21.0513 18.5779 20.7643 18.0897 20.2762C17.6016 19.788 17.3147 19.1343 17.2858 18.4446C17.257 17.7548 17.4883 17.0794 17.934 16.5522C18.3796 16.025 19.0071 15.6845 19.692 15.5981C20.377 15.5118 21.0693 15.6859 21.6319 16.086L19.5819 18.136V17.409C19.5814 17.2877 19.5328 17.1716 19.4467 17.0861C19.3607 17.0006 19.2442 16.9527 19.1229 16.953L19.1239 16.951ZM22.2859 15.432C21.5483 14.8592 20.6201 14.5891 19.6904 14.6767C18.7606 14.7642 17.8992 15.2028 17.2814 15.9031C16.6636 16.6034 16.336 17.5129 16.3652 18.4463C16.3944 19.3797 16.7783 20.2669 17.4386 20.9273C18.099 21.5876 18.9862 21.9715 19.9196 22.0007C20.853 22.0299 21.7625 21.7023 22.4628 21.0845C23.1632 20.4668 23.6017 19.6053 23.6893 18.6755C23.7768 17.7458 23.5067 16.8176 22.9339 16.08L26.5079 12.506C28.0277 14.1947 28.8281 16.4102 28.7385 18.6803C28.6489 20.9505 27.6764 23.096 26.0282 24.6597C24.3801 26.2234 22.1864 27.0817 19.9147 27.0519C17.6429 27.022 15.4727 26.1063 13.8662 24.4998C12.2596 22.8933 11.3439 20.723 11.314 18.4512C11.2842 16.1795 12.1425 13.9859 13.7062 12.3377C15.2699 10.6895 17.4154 9.717 19.6856 9.6274C21.9557 9.53781 24.1712 10.3382 25.8599 11.858L22.2859 15.432ZM33.3269 18.784H31.4929V17.868H33.3259L33.3269 18.784Z" fill="#EE2C65"/>
</g>
</g>
</svg>
