<svg width="36" height="36" viewBox="0 0 36 36" fill="none" xmlns="http://www.w3.org/2000/svg">
<g id="Group 12581">
<path id="Union 9" opacity="0.1" d="M3.4085e-05 27.255C-0.00362338 25.9467 0.287109 24.6544 0.850696 23.4737C1.41428 22.2931 2.23628 21.2543 3.2558 20.4345C4.27532 19.6146 5.46623 19.0346 6.74032 18.7375C8.0144 18.4404 9.33902 18.4337 10.616 18.718C9.36369 15.8845 9.14398 12.7018 9.99512 9.72315C10.8463 6.7445 12.7144 4.15835 15.2747 2.41436C17.835 0.67037 20.9256 -0.121155 24.009 0.177412C27.0925 0.47598 29.9738 1.84576 32.1519 4.04857C34.3301 6.25139 35.6674 9.14791 35.9312 12.2345C36.195 15.3211 35.3688 18.4026 33.5961 20.9431C31.8234 23.4837 29.2163 25.3226 26.2283 26.1401C23.2403 26.9577 20.0602 26.7021 17.241 25.418C17.5125 26.691 17.4967 28.0085 17.1949 29.2746C16.893 30.5407 16.3127 31.7236 15.4961 32.7372C14.6796 33.7508 13.6473 34.5696 12.4744 35.134C11.3016 35.6984 10.0176 35.9943 8.71603 36C6.4006 35.996 4.18157 35.0725 2.54703 33.4325C0.912489 31.7925 -0.00368209 29.5704 3.4085e-05 27.255Z" fill="#EE2C65"/>
<g id="alarm">
<g id="Group 12499">
<path id="Path 16978" d="M22.1709 30.7539H30.1039V32.1539H22.1709V30.7539Z" fill="#EE2C65"/>
<path id="Path 16979" d="M14.7049 10.6889L15.1719 9.28894H10.5049L10.9719 10.6889H14.7049Z" fill="#EE2C65"/>
<path id="Ellipse 419" d="M26.3701 14.8879C28.9471 14.8879 31.0361 12.7989 31.0361 10.2219C31.0361 7.64495 28.9471 5.55591 26.3701 5.55591C23.7931 5.55591 21.7041 7.64495 21.7041 10.2219C21.7041 12.7989 23.7931 14.8879 26.3701 14.8879Z" fill="#EE2C65"/>
<path id="Ellipse 420" d="M12.8379 24.2209C15.4148 24.2209 17.5039 22.1319 17.5039 19.5549C17.5039 16.978 15.4148 14.8889 12.8379 14.8889C10.2609 14.8889 8.17188 16.978 8.17188 19.5549C8.17188 22.1319 10.2609 24.2209 12.8379 24.2209Z" fill="#EE2C65"/>
</g>
<g id="Group 12500">
<path id="Path 16980" d="M29.6365 20.488C29.4838 20.5613 29.3154 20.5957 29.1462 20.5881C28.977 20.5805 28.8123 20.5311 28.6668 20.4444C28.5214 20.3576 28.3997 20.2362 28.3125 20.091C28.2254 19.9457 28.1756 19.7812 28.1675 19.612C27.7393 19.8063 27.2751 19.9087 26.8049 19.9126C26.3347 19.9166 25.8689 19.822 25.4375 19.635V17.222C25.4375 16.8507 25.29 16.4946 25.0275 16.2321C24.7649 15.9695 24.4088 15.822 24.0375 15.822C23.6662 15.822 23.3101 15.9695 23.0475 16.2321C22.785 16.4946 22.6375 16.8507 22.6375 17.222V21.036C22.4264 20.9613 22.2005 20.9383 21.9786 20.969C21.7568 20.9997 21.5456 21.0832 21.3627 21.2124C21.1798 21.3416 21.0306 21.5128 20.9275 21.7116C20.8245 21.9105 20.7706 22.1311 20.7705 22.355V27.488C20.7704 27.6117 20.8193 27.7304 20.9065 27.818L22.6365 29.547V30.287H22.1705C22.1092 30.287 22.0485 30.2991 21.9918 30.3226C21.9351 30.346 21.8837 30.3804 21.8403 30.4238C21.7969 30.4672 21.7625 30.5186 21.739 30.5753C21.7156 30.632 21.7035 30.6927 21.7035 30.754V32.154C21.7035 32.2779 21.7527 32.3967 21.8403 32.4842C21.9279 32.5718 22.0466 32.621 22.1705 32.621H30.1035C30.2274 32.621 30.3461 32.5718 30.4337 32.4842C30.5213 32.3967 30.5705 32.2779 30.5705 32.154V30.754C30.5705 30.6927 30.5584 30.632 30.535 30.5753C30.5115 30.5186 30.4771 30.4672 30.4337 30.4238C30.3904 30.3804 30.3389 30.346 30.2822 30.3226C30.2256 30.2991 30.1648 30.287 30.1035 30.287H29.6365V29.509L30.9435 27.767C31.004 27.6862 31.0366 27.588 31.0365 27.487V21.887C31.0365 21.5157 30.889 21.1596 30.6265 20.8971C30.3639 20.6345 30.0078 20.487 29.6365 20.487V20.488ZM29.6365 31.688H22.6365V31.222H29.6365V31.688ZM30.1035 27.333L28.7965 29.075C28.736 29.1558 28.7034 29.2541 28.7035 29.355V30.288H23.5705V29.355C23.5706 29.2314 23.5217 29.1127 23.4345 29.025L21.7045 27.296V22.356C21.7016 22.2929 21.7115 22.2299 21.7336 22.1708C21.7557 22.1116 21.7896 22.0576 21.8333 22.0119C21.8769 21.9663 21.9292 21.9299 21.9873 21.9051C22.0454 21.8802 22.1079 21.8674 22.171 21.8674C22.2342 21.8674 22.2967 21.8802 22.3547 21.9051C22.4128 21.9299 22.4652 21.9663 22.5088 22.0119C22.5524 22.0576 22.5863 22.1116 22.6084 22.1708C22.6305 22.2299 22.6404 22.2929 22.6375 22.356V25.156C22.6346 25.2191 22.6445 25.2821 22.6666 25.3413C22.6888 25.4004 22.7226 25.4544 22.7662 25.5001C22.8098 25.5458 22.8623 25.5821 22.9203 25.607C22.9784 25.6318 23.0409 25.6446 23.104 25.6446C23.1672 25.6446 23.2296 25.6318 23.2877 25.607C23.3457 25.5821 23.3982 25.5458 23.4418 25.5001C23.4854 25.4544 23.5193 25.4004 23.5414 25.3413C23.5635 25.2821 23.5734 25.2191 23.5705 25.156V17.222C23.5761 17.102 23.6276 16.9888 23.7145 16.9059C23.8014 16.8229 23.9169 16.7766 24.037 16.7766C24.1571 16.7766 24.2726 16.8229 24.3595 16.9059C24.4464 16.9888 24.498 17.102 24.5035 17.222V23.288C24.5006 23.3511 24.5105 23.4141 24.5326 23.4733C24.5547 23.5324 24.5886 23.5864 24.6322 23.6321C24.6758 23.6778 24.7283 23.7141 24.7863 23.739C24.8444 23.7638 24.9069 23.7766 24.97 23.7766C25.0331 23.7766 25.0956 23.7638 25.1537 23.739C25.2117 23.7141 25.2642 23.6778 25.3078 23.6321C25.3514 23.5864 25.3853 23.5324 25.4074 23.4733C25.4295 23.4141 25.4394 23.3511 25.4365 23.288V20.955C25.4421 20.835 25.4936 20.7218 25.5805 20.6389C25.6674 20.5559 25.7829 20.5096 25.903 20.5096C26.0231 20.5096 26.1386 20.5559 26.2255 20.6389C26.3124 20.7218 26.364 20.835 26.3695 20.955V23.288C26.3666 23.3511 26.3765 23.4141 26.3986 23.4733C26.4207 23.5324 26.4546 23.5864 26.4982 23.6321C26.5418 23.6778 26.5943 23.7141 26.6523 23.739C26.7104 23.7638 26.7729 23.7766 26.836 23.7766C26.8991 23.7766 26.9617 23.7638 27.0197 23.739C27.0778 23.7141 27.1302 23.6778 27.1738 23.6321C27.2174 23.5864 27.2513 23.5324 27.2734 23.4733C27.2955 23.4141 27.3054 23.3511 27.3025 23.288V20.955C27.3081 20.835 27.3596 20.7218 27.4465 20.6389C27.5334 20.5559 27.6489 20.5096 27.769 20.5096C27.8891 20.5096 28.0046 20.5559 28.0915 20.6389C28.1784 20.7218 28.2299 20.835 28.2355 20.955V23.288C28.2411 23.408 28.2926 23.5212 28.3795 23.6042C28.4664 23.6871 28.5819 23.7334 28.702 23.7334C28.8221 23.7334 28.9376 23.6871 29.0245 23.6042C29.1114 23.5212 29.163 23.408 29.1685 23.288V21.888C29.1656 21.8249 29.1755 21.7619 29.1976 21.7028C29.2197 21.6436 29.2536 21.5896 29.2972 21.5439C29.3408 21.4983 29.3933 21.4619 29.4513 21.4371C29.5094 21.4122 29.5719 21.3994 29.635 21.3994C29.6982 21.3994 29.7606 21.4122 29.8187 21.4371C29.8768 21.4619 29.9292 21.4983 29.9728 21.5439C30.0164 21.5896 30.0503 21.6436 30.0724 21.7028C30.0945 21.7619 30.1044 21.8249 30.1015 21.888L30.1035 27.333Z" fill="#EE2C65"/>
<path id="Path 16981" d="M17.7377 8.82202H7.93769C7.50475 8.82255 7.0897 8.99477 6.78357 9.3009C6.47743 9.60704 6.30522 10.0221 6.30469 10.455V29.587C6.30522 30.02 6.47743 30.435 6.78357 30.7411C7.0897 31.0473 7.50475 31.2195 7.93769 31.22H17.7377C18.1706 31.2195 18.5857 31.0473 18.8918 30.7411C19.1979 30.435 19.3702 30.02 19.3707 29.587V10.455C19.3702 10.0221 19.1979 9.60704 18.8918 9.3009C18.5857 8.99477 18.1706 8.82255 17.7377 8.82202ZM14.5237 9.75502L14.3677 10.222H11.3047L11.1487 9.75502H14.5237ZM18.4377 29.587C18.4377 29.7727 18.3639 29.9507 18.2327 30.082C18.1014 30.2133 17.9233 30.287 17.7377 30.287H7.93769C7.84576 30.287 7.75474 30.2689 7.66981 30.2337C7.58488 30.1986 7.50771 30.147 7.44271 30.082C7.37771 30.017 7.32615 29.9398 7.29097 29.8549C7.2558 29.77 7.23769 29.6789 7.23769 29.587V10.455C7.23769 10.3631 7.2558 10.2721 7.29097 10.1871C7.32615 10.1022 7.37771 10.025 7.44271 9.96004C7.50771 9.89504 7.58488 9.84348 7.66981 9.8083C7.75474 9.77313 7.84576 9.75502 7.93769 9.75502H10.1677L10.5277 10.836C10.5587 10.9289 10.6182 11.0097 10.6977 11.067C10.7772 11.1242 10.8727 11.155 10.9707 11.155H14.7047C14.8027 11.155 14.8982 11.1242 14.9777 11.067C15.0572 11.0097 15.1166 10.9289 15.1477 10.836L15.5077 9.75502H17.7377C17.9233 9.75502 18.1014 9.82877 18.2327 9.96004C18.3639 10.0913 18.4377 10.2694 18.4377 10.455V29.587Z" fill="#EE2C65"/>
<path id="Path 16982" d="M14.2366 28.887H11.4366C11.3166 28.8925 11.2034 28.9441 11.1204 29.031C11.0375 29.1179 10.9912 29.2333 10.9912 29.3535C10.9912 29.4736 11.0375 29.5891 11.1204 29.676C11.2034 29.7628 11.3166 29.8144 11.4366 29.82H14.2366C14.3566 29.8144 14.4698 29.7628 14.5528 29.676C14.6357 29.5891 14.682 29.4736 14.682 29.3535C14.682 29.2333 14.6357 29.1179 14.5528 29.031C14.4698 28.9441 14.3566 28.8925 14.2366 28.887Z" fill="#EE2C65"/>
<path id="Path 16983" d="M30.1496 13.6909C30.8241 12.957 31.2703 12.0425 31.4337 11.0593C31.5971 10.076 31.4707 9.0664 31.0699 8.15377C30.6691 7.24113 30.0113 6.46493 29.1767 5.91993C28.3421 5.37493 27.3669 5.08472 26.3701 5.08472C25.3734 5.08472 24.3982 5.37493 23.5636 5.91993C22.729 6.46493 22.0712 7.24113 21.6704 8.15377C21.2696 9.0664 21.1432 10.076 21.3066 11.0593C21.47 12.0425 21.9162 12.957 22.5906 13.6909L21.3736 14.9079C21.3276 14.9506 21.2908 15.0022 21.2652 15.0595C21.2396 15.1168 21.2258 15.1787 21.2247 15.2414C21.2235 15.3042 21.235 15.3665 21.2585 15.4247C21.282 15.4829 21.317 15.5358 21.3614 15.5802C21.4058 15.6245 21.4586 15.6595 21.5168 15.683C21.575 15.7065 21.6374 15.718 21.7001 15.7169C21.7629 15.7157 21.8247 15.7019 21.882 15.6763C21.9393 15.6508 21.9909 15.6139 22.0336 15.5679L23.2826 14.3189C24.1719 14.9909 25.256 15.3545 26.3706 15.3545C27.4852 15.3545 28.5694 14.9909 29.4586 14.3189L30.7076 15.5679C30.7962 15.6502 30.9132 15.695 31.0341 15.6928C31.155 15.6906 31.2703 15.6416 31.3558 15.5561C31.4413 15.4706 31.4903 15.3553 31.4925 15.2344C31.4947 15.1135 31.45 14.9965 31.3676 14.9079L30.1496 13.6909ZM22.1706 10.2219C22.1706 9.39123 22.417 8.5792 22.8785 7.88852C23.34 7.19783 23.9959 6.6595 24.7634 6.34161C25.5308 6.02373 26.3753 5.94055 27.19 6.10261C28.0047 6.26467 28.7531 6.66468 29.3405 7.25206C29.9279 7.83944 30.3279 8.58781 30.4899 9.40253C30.652 10.2173 30.5688 11.0617 30.2509 11.8292C29.933 12.5966 29.3947 13.2526 28.704 13.7141C28.0133 14.1756 27.2013 14.4219 26.3706 14.4219C25.8191 14.4219 25.2729 14.3133 24.7634 14.1022C24.2538 13.8911 23.7908 13.5818 23.4008 13.1918C23.0108 12.8018 22.7014 12.3387 22.4903 11.8292C22.2793 11.3196 22.1706 10.7735 22.1706 10.2219Z" fill="#EE2C65"/>
<path id="Path 16984" d="M26.8363 10.028V7.42196C26.8308 7.30197 26.7792 7.18874 26.6923 7.10579C26.6054 7.02284 26.4899 6.97656 26.3698 6.97656C26.2497 6.97656 26.1342 7.02284 26.0473 7.10579C25.9605 7.18874 25.9089 7.30197 25.9033 7.42196V10.222C25.9034 10.3458 25.9527 10.4645 26.0403 10.552L26.9733 11.485C27.0619 11.5673 27.1789 11.6121 27.2998 11.6099C27.4207 11.6077 27.536 11.5587 27.6215 11.4732C27.707 11.3877 27.756 11.2723 27.7582 11.1514C27.7604 11.0305 27.7157 10.9135 27.6333 10.825L26.8363 10.028Z" fill="white"/>
<path id="Path 16985" d="M23.6342 4.37991L23.4692 4.21491C23.163 3.90878 22.7477 3.73682 22.3147 3.73682C21.8817 3.73682 21.4664 3.90878 21.1602 4.21491L20.8302 4.54491C20.5243 4.85127 20.3525 5.26649 20.3525 5.69941C20.3525 6.13232 20.5243 6.54755 20.8302 6.85391L20.9952 7.01891C21.0384 7.06245 21.0898 7.097 21.1465 7.12058C21.2031 7.14416 21.2638 7.1563 21.3252 7.1563C21.3865 7.1563 21.4473 7.14416 21.5039 7.12058C21.5606 7.097 21.612 7.06245 21.6552 7.01891L23.6352 5.03891C23.6787 4.99568 23.7133 4.94427 23.7369 4.88764C23.7605 4.831 23.7726 4.77026 23.7726 4.70891C23.7726 4.64756 23.7605 4.58681 23.7369 4.53018C23.7133 4.47354 23.6787 4.42213 23.6352 4.37891L23.6342 4.37991ZM21.3532 6.00691C21.2901 5.87585 21.2694 5.7284 21.2939 5.58502C21.3185 5.44165 21.3871 5.30949 21.4902 5.20691L21.8202 4.87691C21.8862 4.81221 21.9644 4.76123 22.0502 4.7269C22.136 4.69257 22.2278 4.67558 22.3202 4.67691C22.4241 4.67671 22.5266 4.69995 22.6202 4.74491L21.3532 6.00691Z" fill="#EE2C65"/>
<path id="Path 16986" d="M31.9269 4.54494L31.5969 4.21494C31.2904 3.90901 30.875 3.73718 30.4419 3.73718C30.0088 3.73718 29.5935 3.90901 29.2869 4.21494L29.1219 4.37994C29.0345 4.46751 28.9854 4.5862 28.9854 4.70994C28.9854 4.83369 29.0345 4.95238 29.1219 5.03994L31.1019 7.01995C31.1895 7.10739 31.3082 7.15651 31.4319 7.15651C31.5557 7.15651 31.6744 7.10739 31.7619 7.01995L31.9269 6.85495C32.2329 6.54841 32.4047 6.13303 32.4047 5.69995C32.4047 5.26686 32.2329 4.85148 31.9269 4.54494ZM31.4039 6.00095L30.1409 4.73794C30.272 4.67483 30.4194 4.65411 30.5628 4.67866C30.7062 4.70321 30.8383 4.77182 30.9409 4.87494L31.2709 5.20494C31.3717 5.30735 31.4385 5.43829 31.4623 5.57998C31.4861 5.72166 31.4657 5.86724 31.4039 5.99695V6.00095Z" fill="#EE2C65"/>
<path id="Path 16987" d="M12.8381 14.422C11.8229 14.422 10.8305 14.723 9.98634 15.2871C9.14222 15.8511 8.48431 16.6527 8.09581 17.5907C7.7073 18.5286 7.60565 19.5607 7.80371 20.5564C8.00177 21.5521 8.49064 22.4667 9.2085 23.1846C9.92636 23.9024 10.841 24.3913 11.8367 24.5894C12.8324 24.7874 13.8645 24.6858 14.8024 24.2973C15.7403 23.9088 16.542 23.2509 17.106 22.4067C17.67 21.5626 17.9711 20.5702 17.9711 19.555C17.9711 18.1936 17.4303 16.888 16.4677 15.9254C15.505 14.9628 14.1994 14.422 12.8381 14.422ZM12.8381 23.755C12.0074 23.755 11.1954 23.5087 10.5047 23.0472C9.814 22.5857 9.27567 21.9297 8.95778 21.1623C8.6399 20.3948 8.55672 19.5503 8.71878 18.7356C8.88084 17.9209 9.28085 17.1725 9.86823 16.5851C10.4556 15.9978 11.204 15.5978 12.0187 15.4357C12.8334 15.2736 13.6779 15.3568 14.4453 15.6747C15.2128 15.9926 15.8688 16.5309 16.3303 17.2216C16.7918 17.9123 17.0381 18.7243 17.0381 19.555C17.0381 20.6689 16.5956 21.7372 15.8079 22.5248C15.0203 23.3125 13.952 23.755 12.8381 23.755Z" fill="#EE2C65"/>
<path id="Path 16988" d="M13.3036 19.361V16.754C13.3065 16.6909 13.2966 16.6279 13.2745 16.5687C13.2524 16.5096 13.2185 16.4556 13.1749 16.4099C13.1313 16.3642 13.0789 16.3279 13.0208 16.303C12.9628 16.2782 12.9003 16.2654 12.8371 16.2654C12.774 16.2654 12.7115 16.2782 12.6534 16.303C12.5954 16.3279 12.5429 16.3642 12.4993 16.4099C12.4557 16.4556 12.4219 16.5096 12.3997 16.5687C12.3776 16.6279 12.3677 16.6909 12.3706 16.754V19.554C12.3707 19.6778 12.42 19.7965 12.5076 19.884L13.4406 20.817C13.5292 20.8993 13.6462 20.9441 13.7671 20.9419C13.888 20.9397 14.0033 20.8907 14.0888 20.8052C14.1743 20.7197 14.2233 20.6044 14.2255 20.4835C14.2277 20.3626 14.1829 20.2455 14.1006 20.157L13.3036 19.361Z" fill="white"/>
<path id="Path 16989" d="M19.8367 3.68896H12.8367C12.7128 3.68896 12.594 3.73817 12.5064 3.82575C12.4189 3.91333 12.3696 4.03211 12.3696 4.15596V7.88896C12.3667 7.95204 12.3766 8.01506 12.3988 8.0742C12.4209 8.13335 12.4548 8.18739 12.4984 8.23306C12.542 8.27873 12.5944 8.31509 12.6525 8.33992C12.7105 8.36476 12.773 8.37757 12.8361 8.37757C12.8993 8.37757 12.9618 8.36476 13.0198 8.33992C13.0779 8.31509 13.1303 8.27873 13.1739 8.23306C13.2175 8.18739 13.2514 8.13335 13.2735 8.0742C13.2957 8.01506 13.3056 7.95204 13.3027 7.88896V4.62196H19.8356C19.9556 4.61641 20.0689 4.56483 20.1518 4.47795C20.2348 4.39108 20.281 4.27558 20.281 4.15547C20.281 4.03535 20.2348 3.91985 20.1518 3.83297C20.0689 3.7461 19.9556 3.69452 19.8356 3.68896H19.8367Z" fill="#EE2C65"/>
</g>
</g>
</g>
</svg>
