<svg width="36" height="36" viewBox="0 0 36 36" fill="none" xmlns="http://www.w3.org/2000/svg">
<g id="Group 12576">
<path id="Union 9" opacity="0.1" d="M3.4085e-05 27.255C-0.00362338 25.9467 0.287109 24.6544 0.850696 23.4737C1.41428 22.2931 2.23628 21.2543 3.2558 20.4345C4.27532 19.6146 5.46623 19.0346 6.74032 18.7375C8.0144 18.4404 9.33902 18.4337 10.616 18.718C9.36369 15.8845 9.14398 12.7018 9.99512 9.72315C10.8463 6.7445 12.7144 4.15835 15.2747 2.41436C17.835 0.67037 20.9256 -0.121155 24.009 0.177412C27.0925 0.47598 29.9738 1.84576 32.1519 4.04857C34.3301 6.25139 35.6674 9.14791 35.9312 12.2345C36.195 15.3211 35.3688 18.4026 33.5961 20.9431C31.8234 23.4837 29.2163 25.3226 26.2283 26.1401C23.2403 26.9577 20.0602 26.7021 17.241 25.418C17.5125 26.691 17.4967 28.0085 17.1949 29.2746C16.893 30.5407 16.3127 31.7236 15.4961 32.7372C14.6796 33.7508 13.6473 34.5696 12.4744 35.134C11.3016 35.6984 10.0176 35.9943 8.71603 36C6.4006 35.996 4.18157 35.0725 2.54703 33.4325C0.912489 31.7925 -0.00368209 29.5704 3.4085e-05 27.255Z" fill="#EE2C65"/>
<g id="code (2)">
<path id="Path 17041" d="M21.4506 28.1349H16.8506L17.3106 29.9739H20.9876L21.4506 28.1349Z" fill="#EE2C65"/>
<path id="Path 17042" opacity="0.5" d="M8.11621 26.7569H30.1792V12.0479H26.3722C26.1854 11.0612 25.7969 10.1236 25.2312 9.29389L26.6232 7.90189L24.6732 5.95189L23.2812 7.34389C22.4512 6.77865 21.5138 6.39026 20.5272 6.20289V4.23389H17.7692V6.20189C16.7829 6.3897 15.8458 6.77842 15.0162 7.34389L13.6242 5.95189L11.6742 7.90189L13.0662 9.29389C12.5005 10.1236 12.1121 11.0612 11.9252 12.0479H8.11621V26.7569ZM24.6632 25.3779H13.6322V23.9989H24.6632V25.3779ZM14.9102 10.6689C15.6039 9.6046 16.6741 8.84169 17.9065 8.53296C19.1388 8.22422 20.4423 8.39246 21.5558 9.00397C22.6694 9.61549 23.5108 10.6251 23.9116 11.8307C24.3123 13.0362 24.2428 14.3487 23.717 15.5052C23.1912 16.6617 22.2478 17.5768 21.0759 18.0673C19.904 18.5578 18.59 18.5874 17.3972 18.1503C16.2044 17.7131 15.2207 16.8415 14.6433 15.7099C14.0658 14.5783 13.9372 13.2703 14.2832 12.0479C14.4215 11.5592 14.6329 11.0943 14.9102 10.6689Z" fill="#EE2C65"/>
<g id="Group 12508">
<path id="Path 17043" d="M24.6648 23.5389H13.6338C13.5118 23.5389 13.3948 23.5874 13.3086 23.6737C13.2223 23.7599 13.1738 23.8769 13.1738 23.9989V25.3779C13.1738 25.4999 13.2223 25.617 13.3086 25.7032C13.3948 25.7895 13.5118 25.838 13.6338 25.838H24.6658C24.7878 25.838 24.9048 25.7895 24.9911 25.7032C25.0774 25.617 25.1258 25.4999 25.1258 25.3779V23.9989C25.1258 23.9384 25.1139 23.8785 25.0907 23.8227C25.0675 23.7668 25.0336 23.716 24.9907 23.6733C24.9479 23.6306 24.8971 23.5967 24.8412 23.5737C24.7852 23.5506 24.7253 23.5388 24.6648 23.5389ZM24.2048 24.9179H14.0928V24.4579H24.2048V24.9179Z" fill="#EE2C65"/>
<path id="Path 17044" d="M18.5994 16.176C18.6294 16.182 18.6598 16.185 18.6904 16.1851C18.7966 16.1848 18.8994 16.1478 18.9814 16.0804C19.0635 16.0129 19.1196 15.9192 19.1404 15.815L20.0594 11.215C20.076 11.1542 20.0799 11.0906 20.0709 11.0282C20.0618 10.9657 20.0401 10.9058 20.0069 10.8522C19.9737 10.7985 19.9299 10.7523 19.8781 10.7163C19.8263 10.6803 19.7677 10.6553 19.7058 10.643C19.644 10.6306 19.5802 10.6311 19.5186 10.6444C19.4569 10.6577 19.3987 10.6835 19.3474 10.7203C19.2962 10.7571 19.253 10.804 19.2207 10.8581C19.1884 10.9123 19.1675 10.9725 19.1594 11.035L18.2404 15.635C18.2165 15.7544 18.2409 15.8783 18.3082 15.9797C18.3754 16.0811 18.4802 16.1517 18.5994 16.176Z" fill="#EE2C65"/>
<path id="Path 17045" d="M17.31 16.185C17.3919 16.1852 17.4724 16.1637 17.5431 16.1225C17.6139 16.0813 17.6723 16.0219 17.7125 15.9506C17.7526 15.8793 17.773 15.7985 17.7715 15.7166C17.77 15.6348 17.7468 15.5548 17.704 15.485L16.471 13.427L17.708 11.365C17.7643 11.2608 17.7783 11.1389 17.747 11.0248C17.7157 10.9106 17.6416 10.8128 17.5401 10.7519C17.4386 10.6909 17.3175 10.6715 17.202 10.6976C17.0865 10.7237 16.9855 10.7933 16.92 10.892L15.541 13.192C15.4982 13.2634 15.4756 13.3452 15.4756 13.4285C15.4756 13.5118 15.4982 13.5935 15.541 13.665L16.92 15.965C16.9609 16.0318 17.0182 16.0871 17.0865 16.1256C17.1547 16.1641 17.2317 16.1846 17.31 16.185Z" fill="#EE2C65"/>
<path id="Path 17046" d="M33.3984 28.1329C33.3985 28.0725 33.3867 28.0126 33.3636 27.9567C33.3406 27.9009 33.3067 27.8501 33.264 27.8074C33.2212 27.7646 33.1705 27.7307 33.1146 27.7077C33.0587 27.6846 32.9988 27.6728 32.9384 27.6729H32.0194V11.8149C32.0194 11.6037 31.9778 11.3945 31.8969 11.1993C31.816 11.0042 31.6975 10.8269 31.5481 10.6775C31.3986 10.5282 31.2213 10.4098 31.0261 10.329C30.8308 10.2483 30.6216 10.2068 30.4104 10.2069H26.2704C26.138 9.91397 25.9877 9.62944 25.8204 9.35493L26.9494 8.22493C26.9921 8.18229 27.0261 8.13163 27.0492 8.07586C27.0724 8.02009 27.0843 7.96031 27.0843 7.89993C27.0843 7.83955 27.0724 7.77976 27.0492 7.72399C27.0261 7.66822 26.9921 7.61756 26.9494 7.57493L24.9994 5.62493C24.9568 5.58217 24.9061 5.54825 24.8503 5.52511C24.7946 5.50196 24.7348 5.49005 24.6744 5.49005C24.614 5.49005 24.5542 5.50196 24.4985 5.52511C24.4427 5.54825 24.392 5.58217 24.3494 5.62493L23.2194 6.75393C22.5285 6.33052 21.7753 6.01838 20.9874 5.82893V4.23393C20.9874 4.17352 20.9755 4.1137 20.9524 4.05789C20.9293 4.00208 20.8954 3.95137 20.8527 3.90866C20.8099 3.86594 20.7592 3.83206 20.7034 3.80894C20.6476 3.78582 20.5878 3.77393 20.5274 3.77393H17.7694C17.709 3.77393 17.6492 3.78582 17.5934 3.80894C17.5375 3.83206 17.4868 3.86594 17.4441 3.90866C17.4014 3.95137 17.3675 4.00208 17.3444 4.05789C17.3213 4.1137 17.3094 4.17352 17.3094 4.23393V5.83393C16.5215 6.02338 15.7683 6.33552 15.0774 6.75893L13.9474 5.62993C13.9048 5.58717 13.8541 5.55325 13.7983 5.53011C13.7426 5.50696 13.6828 5.49505 13.6224 5.49505C13.562 5.49505 13.5022 5.50696 13.4465 5.53011C13.3907 5.55325 13.34 5.58717 13.2974 5.62993L11.3474 7.57993C11.3046 7.62256 11.2707 7.67322 11.2476 7.72899C11.2244 7.78476 11.2125 7.84454 11.2125 7.90493C11.2125 7.96531 11.2244 8.02509 11.2476 8.08086C11.2707 8.13663 11.3046 8.18729 11.3474 8.22993L12.4764 9.35993C12.3082 9.63496 12.1572 9.92017 12.0244 10.2139H7.88039C7.4559 10.2168 7.04971 10.3871 6.75011 10.6879C6.4505 10.9886 6.2817 11.3954 6.28039 11.8199V27.6739H5.36039C5.29998 27.6739 5.24017 27.6858 5.18436 27.7089C5.12855 27.7321 5.07784 27.7659 5.03512 27.8087C4.99241 27.8514 4.95853 27.9021 4.93541 27.9579C4.91229 28.0137 4.90039 28.0735 4.90039 28.1339V30.6619C4.9 30.8735 4.94133 31.083 5.02201 31.2786C5.10269 31.4741 5.22115 31.6519 5.3706 31.8016C5.52004 31.9513 5.69755 32.0701 5.89296 32.1512C6.08837 32.2322 6.29784 32.2739 6.50939 32.2739H31.7904C32.2171 32.2739 32.6264 32.1044 32.9281 31.8027C33.2299 31.5009 33.3994 31.0917 33.3994 30.6649L33.3984 28.1329ZM11.9224 12.5069C12.0295 12.507 12.1332 12.4696 12.2158 12.4013C12.2983 12.3331 12.3544 12.2381 12.3744 12.1329C12.5489 11.2078 12.9128 10.3287 13.4434 9.55093C13.5036 9.4624 13.5311 9.35563 13.5211 9.24902C13.511 9.14242 13.4641 9.04265 13.3884 8.96693L12.3214 7.89993L13.6214 6.59993L14.6884 7.66693C14.7641 7.74263 14.8639 7.78955 14.9705 7.79959C15.0771 7.80963 15.1839 7.78216 15.2724 7.72193C16.0501 7.19137 16.9292 6.82741 17.8544 6.65293C17.9596 6.6329 18.0545 6.5768 18.1228 6.49429C18.1911 6.41177 18.2284 6.30802 18.2284 6.20093V4.69293H20.0674V6.20193C20.0674 6.30902 20.1047 6.41277 20.173 6.49529C20.2413 6.5778 20.3362 6.6339 20.4414 6.65393C21.3666 6.82841 22.2456 7.19237 23.0234 7.72293C23.1119 7.78316 23.2187 7.81063 23.3253 7.80059C23.4319 7.79055 23.5317 7.74363 23.6074 7.66793L24.6744 6.60093L25.9744 7.90093L24.9074 8.96793C24.8317 9.04365 24.7848 9.14342 24.7747 9.25002C24.7647 9.35663 24.7922 9.4634 24.8524 9.55193C25.3829 10.3297 25.7469 11.2088 25.9214 12.1339C25.9414 12.2391 25.9975 12.3341 26.08 12.4023C26.1625 12.4706 26.2663 12.508 26.3734 12.5079H27.8804V14.3469H26.3734C26.2663 14.3469 26.1625 14.3842 26.08 14.4525C25.9975 14.5208 25.9414 14.6157 25.9214 14.7209C25.7469 15.6461 25.3829 16.5252 24.8524 17.3029C24.7922 17.3915 24.7647 17.4982 24.7747 17.6048C24.7848 17.7114 24.8317 17.8112 24.9074 17.8869L25.9744 18.9539L24.6744 20.2539L23.6074 19.1869C23.5317 19.1112 23.4319 19.0643 23.3253 19.0543C23.2187 19.0442 23.1119 19.0717 23.0234 19.1319C22.2456 19.6625 21.3666 20.0264 20.4414 20.2009C20.3362 20.2209 20.2413 20.2771 20.173 20.3596C20.1047 20.4421 20.0674 20.5458 20.0674 20.6529V22.1619H18.2294V20.6509C18.2294 20.5438 18.1921 20.4401 18.1238 20.3576C18.0555 20.2751 17.9606 20.2189 17.8554 20.1989C16.9302 20.0244 16.0511 19.6605 15.2734 19.1299C15.1849 19.0697 15.0781 19.0422 14.9715 19.0523C14.8649 19.0623 14.7651 19.1092 14.6894 19.1849L13.6224 20.2519L12.3224 18.9519L13.3894 17.8849C13.4651 17.8092 13.512 17.7094 13.5221 17.6028C13.5321 17.4962 13.5046 17.3895 13.4444 17.3009C12.9157 16.5231 12.5535 15.6444 12.3804 14.7199C12.3604 14.6147 12.3043 14.5198 12.2218 14.4515C12.1392 14.3832 12.0355 14.3459 11.9284 14.3459H10.4154V12.5089H11.9224V12.5069ZM9.95539 15.2649H11.5554C11.7448 16.0528 12.057 16.806 12.4804 17.4969L11.3514 18.6269C11.3086 18.6696 11.2747 18.7202 11.2516 18.776C11.2284 18.8318 11.2165 18.8915 11.2165 18.9519C11.2165 19.0123 11.2284 19.0721 11.2516 19.1279C11.2747 19.1836 11.3086 19.2343 11.3514 19.2769L13.3014 21.2269C13.344 21.2697 13.3947 21.3036 13.4505 21.3267C13.5062 21.3499 13.566 21.3618 13.6264 21.3618C13.6868 21.3618 13.7466 21.3499 13.8023 21.3267C13.8581 21.3036 13.9088 21.2697 13.9514 21.2269L15.0814 20.0979C15.7723 20.5213 16.5255 20.8335 17.3134 21.0229V22.6229C17.3134 22.6833 17.3253 22.7431 17.3484 22.799C17.3715 22.8548 17.4054 22.9055 17.4481 22.9482C17.4908 22.9909 17.5415 23.0248 17.5974 23.0479C17.6532 23.071 17.713 23.0829 17.7734 23.0829H20.5314C20.5918 23.0829 20.6516 23.071 20.7074 23.0479C20.7632 23.0248 20.8139 22.9909 20.8567 22.9482C20.8994 22.9055 20.9333 22.8548 20.9564 22.799C20.9795 22.7431 20.9914 22.6833 20.9914 22.6229V21.0229C21.7793 20.8335 22.5325 20.5213 23.2234 20.0979L24.3534 21.2269C24.396 21.2697 24.4467 21.3036 24.5025 21.3267C24.5582 21.3499 24.618 21.3618 24.6784 21.3618C24.7388 21.3618 24.7986 21.3499 24.8543 21.3267C24.9101 21.3036 24.9608 21.2697 25.0034 21.2269L26.9534 19.2769C26.9961 19.2343 27.0301 19.1836 27.0532 19.1279C27.0764 19.0721 27.0883 19.0123 27.0883 18.9519C27.0883 18.8915 27.0764 18.8318 27.0532 18.776C27.0301 18.7202 26.9961 18.6696 26.9534 18.6269L25.8244 17.4969C26.2478 16.806 26.5599 16.0528 26.7494 15.2649H28.3494C28.4098 15.2649 28.4696 15.253 28.5254 15.2299C28.5812 15.2068 28.6319 15.1729 28.6747 15.1302C28.7174 15.0875 28.7513 15.0368 28.7744 14.981C28.7975 14.9252 28.8094 14.8653 28.8094 14.8049V12.5049H29.7274V26.2939H8.58339V12.5049H9.50439V14.8049C9.50437 14.9254 9.5516 15.041 9.63593 15.1271C9.72026 15.2131 9.83496 15.2626 9.95539 15.2649ZM7.39739 11.3319C7.46148 11.268 7.53761 11.2174 7.62137 11.1831C7.70514 11.1488 7.79487 11.1314 7.88539 11.1319H11.6804C11.6334 11.2839 11.5904 11.4319 11.5534 11.5899H9.95339H9.92239H8.11539C7.99339 11.5899 7.87639 11.6384 7.79012 11.7247C7.70386 11.8109 7.65539 11.9279 7.65539 12.0499V26.7589C7.65539 26.8809 7.70386 26.9979 7.79012 27.0842C7.87639 27.1705 7.99339 27.2189 8.11539 27.2189H30.1784C30.3003 27.2187 30.4172 27.1701 30.5034 27.0839C30.5896 26.9977 30.6381 26.8808 30.6384 26.7589V12.0499C30.6384 11.9895 30.6265 11.9297 30.6034 11.8739C30.5803 11.8181 30.5464 11.7674 30.5037 11.7247C30.4609 11.6819 30.4102 11.6481 30.3544 11.6249C30.2986 11.6018 30.2388 11.5899 30.1784 11.5899H26.7444C26.7074 11.4349 26.6644 11.2819 26.6174 11.1299H30.4084C30.5911 11.1299 30.7664 11.2025 30.8956 11.3317C31.0248 11.4609 31.0974 11.6362 31.0974 11.8189V27.6769H7.19739V11.8199C7.19689 11.7294 7.2143 11.6397 7.24862 11.5559C7.28295 11.4722 7.33351 11.3961 7.39739 11.3319ZM20.8594 28.5949L20.6294 29.5139H17.6704L17.4404 28.5949H20.8594ZM32.2804 31.1489C32.2165 31.2128 32.1405 31.2633 32.0569 31.2977C31.9733 31.332 31.8838 31.3494 31.7934 31.3489H6.51239C6.32974 31.3487 6.15464 31.276 6.02549 31.1468C5.89633 31.0177 5.82366 30.8426 5.82339 30.6599V28.5969H16.4964L16.8684 30.0869C16.8933 30.1863 16.9508 30.2745 17.0316 30.3376C17.1124 30.4006 17.2119 30.4349 17.3144 30.4349H20.9914C21.0939 30.4349 21.1934 30.4006 21.2742 30.3376C21.355 30.2745 21.4124 30.1863 21.4374 30.0869L21.8094 28.5969H31.5624H32.4804V30.6649C32.4805 30.8464 32.4085 31.0205 32.2804 31.1489Z" fill="#EE2C65"/>
<path id="Path 17047" d="M19.1488 7.91089C18.0579 7.91089 16.9914 8.23439 16.0843 8.8405C15.1772 9.44661 14.4702 10.3081 14.0527 11.316C13.6352 12.3239 13.526 13.433 13.7388 14.503C13.9516 15.573 14.477 16.5559 15.2484 17.3273C16.0198 18.0987 17.0027 18.6241 18.0727 18.8369C19.1427 19.0497 20.2518 18.9405 21.2597 18.523C22.2676 18.1055 23.1291 17.3985 23.7352 16.4914C24.3413 15.5843 24.6648 14.5178 24.6648 13.4269C24.6648 11.964 24.0837 10.5609 23.0492 9.52649C22.0148 8.49204 20.6118 7.91089 19.1488 7.91089ZM19.1488 18.0229C18.239 18.0229 17.3497 17.7531 16.5932 17.2477C15.8367 16.7422 15.2471 16.0238 14.899 15.1832C14.5508 14.3427 14.4597 13.4178 14.6372 12.5255C14.8147 11.6332 15.2528 10.8135 15.8961 10.1702C16.5394 9.52687 17.3591 9.08877 18.2514 8.91128C19.1437 8.73379 20.0686 8.82488 20.9092 9.17304C21.7497 9.52121 22.4681 10.1108 22.9736 10.8673C23.479 11.6237 23.7488 12.5131 23.7488 13.4229C23.7488 14.6429 23.2642 15.8129 22.4015 16.6756C21.5388 17.5383 20.3688 18.0229 19.1488 18.0229Z" fill="#EE2C65"/>
<path id="Path 17048" d="M22.7604 13.6629L21.3814 15.9629C21.3159 16.0616 21.2149 16.1312 21.0995 16.1573C20.984 16.1834 20.8629 16.164 20.7613 16.103C20.6598 16.0421 20.5857 15.9444 20.5544 15.8302C20.5232 15.716 20.5371 15.5941 20.5934 15.4899L21.8304 13.4279L20.5934 11.3659C20.5371 11.2618 20.5232 11.1399 20.5544 11.0257C20.5857 10.9115 20.6598 10.8138 20.7613 10.7529C20.8629 10.6919 20.984 10.6725 21.0995 10.6986C21.2149 10.7247 21.3159 10.7943 21.3814 10.8929L22.7604 13.1929C22.8027 13.264 22.8249 13.3452 22.8249 13.4279C22.8249 13.5106 22.8027 13.5918 22.7604 13.6629Z" fill="#EE2C65"/>
</g>
</g>
</g>
</svg>
